<svg width="24" height="24" viewBox="0 0 24 24" fill="none" xmlns="http://www.w3.org/2000/svg">
<g id="Task List">
<g id="task-list--task-list-work">
<path id="Vector" d="M20.0892 21.4286C20.0892 21.8832 19.9085 22.3193 19.587 22.6407C19.2654 22.9622 18.8295 23.1429 18.3749 23.1429H2.94622C2.49156 23.1429 2.05553 22.9622 1.73403 22.6407C1.41255 22.3193 1.23193 21.8832 1.23193 21.4286V2.57143C1.23193 2.11677 1.41255 1.68074 1.73403 1.35925C2.05553 1.03776 2.49156 0.857147 2.94622 0.857147H12.5219C12.9765 0.857147 13.4126 1.03776 13.734 1.35925L19.587 7.21219C19.9085 7.53367 20.0892 7.96972 20.0892 8.42436V21.4286Z" stroke="#03989E" stroke-width="1.71429" stroke-linecap="round" stroke-linejoin="round"/>
<path id="Vector_2" d="M11.6182 10.9286H15.9039" stroke="#03989E" stroke-width="1.71429" stroke-linecap="round" stroke-linejoin="round"/>
<path id="Vector_3" d="M11.6182 16.875H15.9039" stroke="#03989E" stroke-width="1.71429" stroke-linecap="round" stroke-linejoin="round"/>
<path id="Vector_4" d="M4.98877 16.7779L6.42515 18.2143L8.81912 14.8627" stroke="#03989E" stroke-width="1.71429" stroke-linecap="round" stroke-linejoin="round"/>
<path id="Vector_5" d="M4.98877 10.7243L6.42515 12.1607L8.81912 8.80914" stroke="#03989E" stroke-width="1.71429" stroke-linecap="round" stroke-linejoin="round"/>
</g>
</g>
</svg>
